<svg width="22px" height="22px" viewBox="0 0 22 22" version="1.1"
  xmlns="http://www.w3.org/2000/svg">
  <g stroke="none" stroke-width="1" fill="none" fill-rule="evenodd">
    <g id="bfbd6b2e16d3777ec4df3746d073e284_svg" fill="#141414" fill-rule="nonzero">
      <polygon transform="translate(11.328548, 10.651199) rotate(-45.000000) translate(-11.328548, -10.651199) " points="10.6840017 10.0066523 11.9718384 10.0079087 11.9730948 11.2957454 10.6852581 11.2944889"></polygon>
      <path d="M19.4217853,2.5782015 L19.4217853,0 L18.1326779,0 L18.1326779,2.5782015 L15.5544202,2.5782015 L15.5544202,3.86730224 L17.2211375,3.86730224 L13.1515613,7.93685765 L11.3284375,6.11374324 L0.565480321,16.8767741 C-0.18849344,17.630744 -0.18849344,18.8574544 0.565480321,19.6114243 L2.38856112,21.4345387 C3.14249191,22.1884656 4.36925152,22.1885086 5.12322528,21.4345387 L5.62475726,20.9330093 C6.87218487,21.7577914 8.57753112,21.6257919 9.68092727,20.5224873 L11.6000004,18.603553 L10.68846,17.6919743 L8.76938687,19.6109516 C8.17517116,20.2051643 7.28756439,20.3309334 6.56895396,19.9888604 L15.8862254,10.6715078 L14.0631017,8.84843635 L18.1326779,4.77888094 L18.1326779,6.44558968 L19.4217853,6.44558968 L19.4217853,3.86734521 L22,3.86734521 L22,2.5782015 L19.4217853,2.5782015 Z M4.21159894,20.522917 C3.96031732,20.7741974 3.55138313,20.7742403 3.30001558,20.522917 L1.47693478,18.6998456 C1.22561019,18.4485653 1.22561019,18.0395902 1.47693478,17.7883099 L1.93257607,17.3326709 L4.66719727,20.067321 L4.21159894,20.522917 Z M5.5788236,19.1557423 L2.84420241,16.4210922 L6.44859831,12.8167148 L9.18326248,15.5513649 L5.5788236,19.1557423 Z M14.0631446,10.6714648 L10.0947599,14.6398292 L7.36009574,11.9051791 L11.3284375,7.93685765 L14.0631446,10.6714648 Z"></path>
    </g>
  </g>
</svg>